<svg width="39" height="39" viewBox="0 0 39 39" fill="none" xmlns="http://www.w3.org/2000/svg">
<path d="M8.72973 39H0.644196V12.9617H8.72973V39ZM4.68261 9.40983C2.09712 9.40983 0 7.26826 0 4.68272C0 3.44078 0.493345 2.24972 1.37151 1.37154C2.24967 0.493356 3.44071 0 4.68261 0C5.92452 0 7.11556 0.493356 7.99372 1.37154C8.87188 2.24972 9.36522 3.44078 9.36522 4.68272C9.36522 7.26826 7.26723 9.40983 4.68261 9.40983ZM38.9913 39H30.9232V26.3247C30.9232 23.3039 30.8622 19.4299 26.7194 19.4299C22.5155 19.4299 21.8713 22.7119 21.8713 26.1071V39H13.7945V12.9617H21.5492V16.5136H21.6624C22.7419 14.4678 25.3787 12.3088 29.3127 12.3088C37.4957 12.3088 39 17.6975 39 24.6968V39H38.9913Z" fill="#34373C"/>
<path d="M8.72973 39H0.644196V12.9617H8.72973V39ZM4.68261 9.40983C2.09712 9.40983 0 7.26826 0 4.68272C0 3.44078 0.493345 2.24972 1.37151 1.37154C2.24967 0.493356 3.44071 0 4.68261 0C5.92452 0 7.11556 0.493356 7.99372 1.37154C8.87188 2.24972 9.36522 3.44078 9.36522 4.68272C9.36522 7.26826 7.26723 9.40983 4.68261 9.40983ZM38.9913 39H30.9232V26.3247C30.9232 23.3039 30.8622 19.4299 26.7194 19.4299C22.5155 19.4299 21.8713 22.7119 21.8713 26.1071V39H13.7945V12.9617H21.5492V16.5136H21.6624C22.7419 14.4678 25.3787 12.3088 29.3127 12.3088C37.4957 12.3088 39 17.6975 39 24.6968V39H38.9913Z" stroke="#34373C"/>
</svg>
