<svg width="41" height="39" viewBox="0 0 41 39" fill="none" xmlns="http://www.w3.org/2000/svg">
<path d="M20.5046 9.50089C14.6873 9.50089 9.99504 13.9652 9.99504 19.5C9.99504 25.0348 14.6873 29.4991 20.5046 29.4991C26.3219 29.4991 31.0141 25.0348 31.0141 19.5C31.0141 13.9652 26.3219 9.50089 20.5046 9.50089ZM20.5046 26.0007C16.7453 26.0007 13.672 23.0854 13.672 19.5C13.672 15.9146 16.7361 12.9993 20.5046 12.9993C24.273 12.9993 27.3371 15.9146 27.3371 19.5C27.3371 23.0854 24.2639 26.0007 20.5046 26.0007V26.0007ZM33.8953 9.09188C33.8953 10.3885 32.7977 11.4241 31.444 11.4241C30.0812 11.4241 28.9927 10.3798 28.9927 9.09188C28.9927 7.80392 30.0903 6.75962 31.444 6.75962C32.7977 6.75962 33.8953 7.80392 33.8953 9.09188ZM40.8559 11.4589C40.7004 8.33477 39.9504 5.56739 37.5448 3.28735C35.1484 1.00731 32.2398 0.293707 28.9561 0.137063C25.5718 -0.0456878 15.4282 -0.0456878 12.0439 0.137063C8.76938 0.285005 5.86074 0.998605 3.45516 3.27865C1.04958 5.55869 0.3087 8.32606 0.14406 11.4502C-0.0480201 14.6701 -0.0480201 24.3212 0.14406 27.5411C0.299554 30.6652 1.04958 33.4326 3.45516 35.7127C5.86074 37.9927 8.76023 38.7063 12.0439 38.8629C15.4282 39.0457 25.5718 39.0457 28.9561 38.8629C32.2398 38.715 35.1484 38.0014 37.5448 35.7127C39.9413 33.4326 40.6913 30.6652 40.8559 27.5411C41.048 24.3212 41.048 14.6788 40.8559 11.4589V11.4589ZM36.4838 30.9959C35.7704 32.7016 34.3892 34.0157 32.5873 34.7032C29.8891 35.7214 23.4864 35.4864 20.5046 35.4864C17.5228 35.4864 11.1109 35.7127 8.42181 34.7032C6.62906 34.0244 5.24791 32.7103 4.52532 30.9959C3.45516 28.4287 3.70212 22.337 3.70212 19.5C3.70212 16.663 3.46431 10.5626 4.52532 8.00407C5.23876 6.29839 6.61991 4.98432 8.42181 4.29683C11.1201 3.27865 17.5228 3.51361 20.5046 3.51361C23.4864 3.51361 29.8982 3.28735 32.5873 4.29683C34.3801 4.97562 35.7612 6.28969 36.4838 8.00407C37.554 10.5713 37.307 16.663 37.307 19.5C37.307 22.337 37.554 28.4374 36.4838 30.9959Z" fill="#34373C"/>
</svg>
