<svg width="49" height="49" viewBox="0 0 49 49" fill="none" xmlns="http://www.w3.org/2000/svg">
<g filter="url(#filter0_d_16_90)">
<path d="M11.7297 42H3.6442V15.9617H11.7297V42ZM7.68261 12.4098C5.09712 12.4098 3 10.2683 3 7.68272C3 6.44078 3.49335 5.24972 4.37151 4.37154C5.24967 3.49336 6.44071 3 7.68261 3C8.92452 3 10.1156 3.49336 10.9937 4.37154C11.8719 5.24972 12.3652 6.44078 12.3652 7.68272C12.3652 10.2683 10.2672 12.4098 7.68261 12.4098ZM41.9913 42H33.9232V29.3247C33.9232 26.3039 33.8622 22.4299 29.7194 22.4299C25.5155 22.4299 24.8713 25.7119 24.8713 29.1071V42H16.7945V15.9617H24.5492V19.5136H24.6624C25.7419 17.4678 28.3787 15.3088 32.3127 15.3088C40.4957 15.3088 42 20.6975 42 27.6968V42H41.9913Z" fill="#F3DFD8" fill-opacity="0.7"/>
<path d="M11.7297 42.5H12.2297V42V15.9617V15.4617H11.7297H3.6442H3.1442V15.9617V42V42.5H3.6442H11.7297ZM33.4232 42V42.5H33.9232H41.9913H42H42.5V42V27.6968C42.5 24.1863 42.1283 20.9629 40.6481 18.6117C39.1345 16.2074 36.5275 14.8088 32.3127 14.8088C28.9621 14.8088 26.4848 16.3039 25.0492 18.0444V15.9617V15.4617H24.5492H16.7945H16.2945V15.9617V42V42.5H16.7945H24.8713H25.3713V42V29.1071C25.3713 27.4187 25.5362 25.8619 26.1567 24.7368C26.4605 24.1859 26.8715 23.7427 27.4305 23.4332C27.9924 23.1221 28.7334 22.9299 29.7194 22.9299C30.6753 22.9299 31.3503 23.1523 31.8379 23.4925C32.3266 23.8334 32.6699 24.3224 32.91 24.9286C33.4015 26.1698 33.4232 27.7924 33.4232 29.3247V42ZM2.5 7.68272C2.5 10.5382 4.81485 12.9098 7.68261 12.9098C10.5494 12.9098 12.8652 10.5383 12.8652 7.68272C12.8652 6.30818 12.3192 4.98994 11.3473 4.01799C10.3753 3.04604 9.05713 2.5 7.68261 2.5C6.30809 2.5 4.98988 3.04604 4.01795 4.01799C3.04602 4.98993 2.5 6.30818 2.5 7.68272Z" stroke="#333030" stroke-opacity="0.5"/>
</g>
<defs>
<filter id="filter0_d_16_90" x="0" y="0" width="49" height="49" filterUnits="userSpaceOnUse" color-interpolation-filters="sRGB">
<feFlood flood-opacity="0" result="BackgroundImageFix"/>
<feColorMatrix in="SourceAlpha" type="matrix" values="0 0 0 0 0 0 0 0 0 0 0 0 0 0 0 0 0 0 127 0" result="hardAlpha"/>
<feOffset dx="2" dy="2"/>
<feGaussianBlur stdDeviation="2"/>
<feColorMatrix type="matrix" values="0 0 0 0 0 0 0 0 0 0 0 0 0 0 0 0 0 0 0.25 0"/>
<feBlend mode="normal" in2="BackgroundImageFix" result="effect1_dropShadow_16_90"/>
<feBlend mode="normal" in="SourceGraphic" in2="effect1_dropShadow_16_90" result="shape"/>
</filter>
</defs>
</svg>
