<svg width="48" height="49" viewBox="0 0 48 49" fill="none" xmlns="http://www.w3.org/2000/svg">
<path d="M16.104 0.555056C26.1147 -2.30143 35.7103 6.04319 44.9431 21.5334C54.1758 37.0235 40.0524 44.7585 34.731 47.6457C29.4096 50.5328 3.79122 39.0848 0.656635 29.3939C-2.47795 19.7029 6.09338 3.41155 16.104 0.555056Z" fill="#34373C"/>
<mask id="mask0_123_1561" style="mask-type:alpha" maskUnits="userSpaceOnUse" x="0" y="0" width="48" height="49">
<path d="M16.104 0.555056C26.1147 -2.30143 35.7103 6.04319 44.9431 21.5334C54.1758 37.0235 40.0524 44.7585 34.731 47.6457C29.4096 50.5328 3.79122 39.0848 0.656635 29.3939C-2.47795 19.7029 6.09338 3.41155 16.104 0.555056Z" fill="#34373C"/>
</mask>
<g mask="url(#mask0_123_1561)">
<path d="M13.2869 19.0778V21.0946H4.39224V19.0778H13.2869ZM13.1576 9.98491L5.53855 21.0946H3.71997V19.6122L11.3994 8.54556H13.1576V9.98491ZM11.3994 8.54556L9.99388 10.571H3.72859V8.54556H11.3994Z" fill="white"/>
<path d="M22.8039 10.6917L19.3908 21.0946H16.6414L21.3042 8.54556H23.0538L22.8039 10.6917ZM25.6395 21.0946L22.2178 10.6917L21.942 8.54556H23.7088L28.3975 21.0946H25.6395ZM25.4843 16.4232V18.4486H18.8564V16.4232H25.4843Z" fill="white"/>
<path d="M42.4221 8.54556V21.0946H39.8365L34.7944 12.6826V21.0946H32.2088V8.54556H34.7944L39.8451 16.9662V8.54556H42.4221Z" fill="white"/>
<path d="M14.8555 29.1562V41.7053H12.2785V29.1562H14.8555Z" fill="white"/>
<path d="M26.4583 38.4215C26.4583 38.1974 26.4238 37.9963 26.3548 37.8182C26.2916 37.6343 26.171 37.4677 25.9928 37.3183C25.8147 37.1632 25.5648 37.0109 25.243 36.8615C24.9212 36.7121 24.5047 36.557 23.9933 36.3961C23.4244 36.2122 22.8843 36.0053 22.3729 35.7755C21.8673 35.5457 21.4191 35.2785 21.0284 34.974C20.6434 34.6637 20.3389 34.3046 20.1148 33.8966C19.8964 33.4886 19.7873 33.0146 19.7873 32.4745C19.7873 31.9516 19.9022 31.4776 20.132 31.0524C20.3619 30.6214 20.6836 30.2537 21.0973 29.9492C21.511 29.6389 21.9994 29.4004 22.5625 29.2338C23.1314 29.0672 23.7548 28.9838 24.4328 28.9838C25.3579 28.9838 26.1652 29.1505 26.8547 29.4837C27.5442 29.817 28.0786 30.2738 28.4578 30.8541C28.8428 31.4345 29.0353 32.0981 29.0353 32.8451H26.4669C26.4669 32.4774 26.3893 32.1556 26.2342 31.8798C26.0848 31.5982 25.8549 31.377 25.5447 31.2161C25.2401 31.0552 24.8552 30.9748 24.3897 30.9748C23.9416 30.9748 23.5681 31.0438 23.2693 31.1817C22.9705 31.3138 22.7464 31.4948 22.597 31.7246C22.4476 31.9487 22.3729 32.2016 22.3729 32.4831C22.3729 32.6957 22.4246 32.8882 22.5281 33.0606C22.6372 33.2329 22.7981 33.3938 23.0107 33.5432C23.2233 33.6926 23.4848 33.8334 23.795 33.9656C24.1053 34.0977 24.4644 34.227 24.8724 34.3534C25.5562 34.5603 26.1566 34.793 26.6737 35.0515C27.1966 35.3101 27.6333 35.6003 27.9838 35.922C28.3343 36.2438 28.5986 36.6087 28.7767 37.0166C28.9549 37.4246 29.0439 37.8871 29.0439 38.4043C29.0439 38.9501 28.9376 39.4385 28.725 39.8695C28.5124 40.3004 28.205 40.6653 27.8028 40.9641C27.4006 41.2629 26.9208 41.4898 26.3635 41.645C25.8061 41.8001 25.1827 41.8777 24.4932 41.8777C23.8726 41.8777 23.2607 41.7972 22.6573 41.6363C22.054 41.4697 21.5053 41.2198 21.0111 40.8865C20.5227 40.5532 20.132 40.128 19.839 39.6109C19.5459 39.0938 19.3994 38.4818 19.3994 37.7751H21.9937C21.9937 38.1658 22.054 38.4962 22.1747 38.7663C22.2954 39.0363 22.4649 39.2547 22.6832 39.4213C22.9073 39.5879 23.1716 39.7086 23.4761 39.7833C23.7864 39.858 24.1254 39.8953 24.4932 39.8953C24.9413 39.8953 25.3091 39.8321 25.5964 39.7057C25.8894 39.5793 26.1049 39.4041 26.2428 39.18C26.3864 38.9559 26.4583 38.7031 26.4583 38.4215Z" fill="white"/>
<path d="M36.0356 29.1562V41.7053H33.4499V29.1562H36.0356ZM43.5512 29.1562L38.5781 35.3532L35.708 38.4387L35.2426 35.991L37.1819 33.3364L40.3795 29.1562H43.5512ZM40.6122 41.7053L36.9147 35.9048L38.8281 34.3017L43.6719 41.7053H40.6122Z" fill="white"/>
</g>
</svg>
