<svg width="58" height="49" viewBox="0 0 58 49" fill="none" xmlns="http://www.w3.org/2000/svg">
<g filter="url(#filter0_d_16_91)">
<path d="M21.61 29.8828C21.61 32.0054 20.52 35.4787 17.94 35.4787C15.36 35.4787 14.27 32.0054 14.27 29.8828C14.27 27.7602 15.36 24.2869 17.94 24.2869C20.52 24.2869 21.61 27.7602 21.61 29.8828ZM51 24.754C51 27.9938 50.68 31.4265 49.25 34.4022C45.46 42.1816 35.04 41.9988 27.58 41.9988C20 41.9988 8.96 42.273 5.02 34.4022C3.56 31.457 3 27.9938 3 24.754C3 20.4987 4.39 16.4769 7.15 13.2169C6.63 11.6122 6.38 9.92636 6.38 8.26078C6.38 6.07725 6.87 4.98041 7.84 3C12.37 3 15.27 3.91404 18.72 6.65614C21.62 5.95538 24.6 5.64055 27.59 5.64055C30.29 5.64055 33.01 5.93507 35.63 6.57489C39.03 3.86326 41.93 3 46.41 3C47.39 4.98041 47.87 6.07725 47.87 8.26078C47.87 9.92636 47.61 11.5818 47.1 13.1559C49.85 16.4465 51 20.4987 51 24.754ZM44.57 29.8828C44.57 25.4243 41.9 21.494 37.22 21.494C35.33 21.494 33.52 21.8393 31.62 22.1033C30.13 22.3369 28.64 22.4283 27.11 22.4283C25.59 22.4283 24.1 22.3369 22.6 22.1033C20.73 21.8393 18.9 21.494 17 21.494C12.32 21.494 9.65 25.4243 9.65 29.8828C9.65 38.7997 17.69 40.1708 24.69 40.1708H29.51C36.54 40.1708 44.57 38.8099 44.57 29.8828ZM36.31 24.2869C33.73 24.2869 32.64 27.7602 32.64 29.8828C32.64 32.0054 33.73 35.4787 36.31 35.4787C38.89 35.4787 39.98 32.0054 39.98 29.8828C39.98 27.7602 38.89 24.2869 36.31 24.2869Z" fill="#F3DFD8" fill-opacity="0.7"/>
<path d="M49.6995 34.6212L49.7007 34.6188C51.1801 31.5403 51.5 28.0162 51.5 24.754C51.5 20.4983 50.3726 16.4075 47.6582 13.0477C48.1299 11.5023 48.37 9.88601 48.37 8.26078C48.37 5.96134 47.8492 4.78109 46.8581 2.77824L46.7204 2.5H46.41C44.1385 2.5 42.2372 2.71866 40.4607 3.29499C38.7474 3.85084 37.1749 4.73134 35.5107 6.03205C32.9217 5.42143 30.2444 5.14055 27.59 5.14055C24.6462 5.14055 21.7072 5.44219 18.8394 6.11378C17.1528 4.79827 15.5685 3.89765 13.8424 3.3252C12.0531 2.73176 10.1384 2.5 7.84 2.5H7.52814L7.39097 2.78007C6.41162 4.77956 5.88 5.96044 5.88 8.26078C5.88 9.88469 6.11073 11.5293 6.59117 13.1064C3.8684 16.4231 2.5 20.4788 2.5 24.754C2.5 28.0444 3.06775 31.5897 4.57202 34.6243L4.57289 34.626C6.63914 38.7537 10.5571 40.7098 14.8285 41.6406C18.8139 42.5092 23.1938 42.5038 26.829 42.4995C27.0831 42.4991 27.3336 42.4988 27.58 42.4988C27.7511 42.4988 27.9239 42.4989 28.0983 42.499C31.7101 42.5012 36.0136 42.5037 39.9038 41.605C43.9935 40.6601 47.7127 38.6992 49.6995 34.6212ZM17.94 35.9787C19.4957 35.9787 20.5487 34.9219 21.1852 33.7091C21.8231 32.4937 22.11 31.0128 22.11 29.8828C22.11 28.7528 21.8231 27.2719 21.1852 26.0565C20.5487 24.8437 19.4957 23.7869 17.94 23.7869C16.3843 23.7869 15.3313 24.8437 14.6948 26.0565C14.0569 27.2719 13.77 28.7528 13.77 29.8828C13.77 31.0128 14.0569 32.4937 14.6948 33.7091C15.3313 34.9219 16.3843 35.9787 17.94 35.9787ZM37.22 21.994C39.4056 21.994 41.102 22.9057 42.2621 24.332C43.4304 25.7683 44.07 27.7485 44.07 29.8828C44.07 32.0375 43.5863 33.7011 42.7812 34.9918C41.9759 36.2829 40.8288 37.2329 39.451 37.928C36.6759 39.3281 33.0121 39.6708 29.51 39.6708H24.69C21.2035 39.6708 17.5445 39.3257 14.7704 37.9243C13.3931 37.2286 12.2456 36.2781 11.4398 34.9873C10.6342 33.6971 10.15 32.0348 10.15 29.8828C10.15 27.7485 10.7896 25.7683 11.9579 24.332C13.118 22.9057 14.8144 21.994 17 21.994C18.4848 21.994 19.9193 22.2095 21.408 22.4332C21.777 22.4887 22.1494 22.5446 22.5266 22.5979C24.0558 22.8359 25.571 22.9283 27.11 22.9283C28.6585 22.9283 30.1736 22.8359 31.6931 22.598C32.1016 22.5412 32.502 22.4814 32.8971 22.4224C34.3698 22.2025 35.7668 21.994 37.22 21.994ZM36.31 23.7869C34.7543 23.7869 33.7013 24.8437 33.0648 26.0565C32.4269 27.2719 32.14 28.7528 32.14 29.8828C32.14 31.0128 32.4269 32.4937 33.0648 33.7091C33.7013 34.9219 34.7543 35.9787 36.31 35.9787C37.8657 35.9787 38.9187 34.9219 39.5552 33.7091C40.1931 32.4937 40.48 31.0128 40.48 29.8828C40.48 28.7528 40.1931 27.2719 39.5552 26.0565C38.9187 24.8437 37.8657 23.7869 36.31 23.7869Z" stroke="#333030" stroke-opacity="0.5"/>
</g>
<defs>
<filter id="filter0_d_16_91" x="0" y="0" width="58" height="49.0002" filterUnits="userSpaceOnUse" color-interpolation-filters="sRGB">
<feFlood flood-opacity="0" result="BackgroundImageFix"/>
<feColorMatrix in="SourceAlpha" type="matrix" values="0 0 0 0 0 0 0 0 0 0 0 0 0 0 0 0 0 0 127 0" result="hardAlpha"/>
<feOffset dx="2" dy="2"/>
<feGaussianBlur stdDeviation="2"/>
<feColorMatrix type="matrix" values="0 0 0 0 0 0 0 0 0 0 0 0 0 0 0 0 0 0 0.25 0"/>
<feBlend mode="normal" in2="BackgroundImageFix" result="effect1_dropShadow_16_91"/>
<feBlend mode="normal" in="SourceGraphic" in2="effect1_dropShadow_16_91" result="shape"/>
</filter>
</defs>
</svg>
