<svg width="48" height="39" viewBox="0 0 48 39" fill="none" xmlns="http://www.w3.org/2000/svg">
<path d="M18.61 26.8828C18.61 29.0054 17.52 32.4787 14.94 32.4787C12.36 32.4787 11.27 29.0054 11.27 26.8828C11.27 24.7602 12.36 21.2869 14.94 21.2869C17.52 21.2869 18.61 24.7602 18.61 26.8828ZM48 21.754C48 24.9938 47.68 28.4265 46.25 31.4022C42.5444 39.0085 32.5006 39.003 25.0825 38.999C24.9136 38.9989 24.7461 38.9988 24.58 38.9988C24.3363 38.9988 24.0891 38.9991 23.8387 38.9994C16.2976 39.0081 5.83335 39.02 2.02 31.4022C0.56 28.457 0 24.9938 0 21.754C0 17.4987 1.39 13.4769 4.15 10.2169C3.63 8.61224 3.38 6.92636 3.38 5.26078C3.38 3.07725 3.87 1.98041 4.84 0C9.37 0 12.27 0.914035 15.72 3.65614C18.62 2.95538 21.6 2.64055 24.59 2.64055C27.29 2.64055 30.01 2.93507 32.63 3.57489C36.03 0.863255 38.93 0 43.41 0C44.39 1.98041 44.87 3.07725 44.87 5.26078C44.87 6.92636 44.61 8.58178 44.1 10.1559C46.85 13.4465 48 17.4987 48 21.754ZM41.57 26.8828C41.57 22.4243 38.9 18.494 34.22 18.494C32.726 18.494 31.282 18.7097 29.804 18.9306C29.4122 18.9891 29.0181 19.048 28.62 19.1033C27.13 19.3369 25.64 19.4283 24.11 19.4283C22.59 19.4283 21.1 19.3369 19.6 19.1033C19.2317 19.0513 18.865 18.9962 18.499 18.9411C17.0065 18.7167 15.5258 18.494 14 18.494C9.32 18.494 6.65 22.4243 6.65 26.8828C6.65 35.7997 14.69 37.1708 21.69 37.1708H26.51C33.54 37.1708 41.57 35.8099 41.57 26.8828ZM33.31 21.2869C30.73 21.2869 29.64 24.7602 29.64 26.8828C29.64 29.0054 30.73 32.4787 33.31 32.4787C35.89 32.4787 36.98 29.0054 36.98 26.8828C36.98 24.7602 35.89 21.2869 33.31 21.2869Z" fill="#34373C"/>
<path d="M18.61 26.8828C18.61 29.0054 17.52 32.4787 14.94 32.4787C12.36 32.4787 11.27 29.0054 11.27 26.8828C11.27 24.7602 12.36 21.2869 14.94 21.2869C17.52 21.2869 18.61 24.7602 18.61 26.8828ZM48 21.754C48 24.9938 47.68 28.4265 46.25 31.4022C42.5444 39.0085 32.5006 39.003 25.0825 38.999C24.9136 38.9989 24.7461 38.9988 24.58 38.9988C24.3363 38.9988 24.0891 38.9991 23.8387 38.9994C16.2976 39.0081 5.83335 39.02 2.02 31.4022C0.56 28.457 0 24.9938 0 21.754C0 17.4987 1.39 13.4769 4.15 10.2169C3.63 8.61224 3.38 6.92636 3.38 5.26078C3.38 3.07725 3.87 1.98041 4.84 0C9.37 0 12.27 0.914035 15.72 3.65614C18.62 2.95538 21.6 2.64055 24.59 2.64055C27.29 2.64055 30.01 2.93507 32.63 3.57489C36.03 0.863255 38.93 0 43.41 0C44.39 1.98041 44.87 3.07725 44.87 5.26078C44.87 6.92636 44.61 8.58178 44.1 10.1559C46.85 13.4465 48 17.4987 48 21.754ZM41.57 26.8828C41.57 22.4243 38.9 18.494 34.22 18.494C32.726 18.494 31.282 18.7097 29.804 18.9306C29.4122 18.9891 29.0181 19.048 28.62 19.1033C27.13 19.3369 25.64 19.4283 24.11 19.4283C22.59 19.4283 21.1 19.3369 19.6 19.1033C19.2317 19.0513 18.865 18.9962 18.499 18.9411C17.0065 18.7167 15.5258 18.494 14 18.494C9.32 18.494 6.65 22.4243 6.65 26.8828C6.65 35.7997 14.69 37.1708 21.69 37.1708H26.51C33.54 37.1708 41.57 35.8099 41.57 26.8828ZM33.31 21.2869C30.73 21.2869 29.64 24.7602 29.64 26.8828C29.64 29.0054 30.73 32.4787 33.31 32.4787C35.89 32.4787 36.98 29.0054 36.98 26.8828C36.98 24.7602 35.89 21.2869 33.31 21.2869Z" stroke="#34373C"/>
</svg>
