<svg width="123" height="117" viewBox="0 0 123 117" fill="none" xmlns="http://www.w3.org/2000/svg">
<path d="M43.6769 12.0973C63.105 6.5536 81.7276 22.7484 99.646 52.8108C117.564 82.8732 90.1545 97.8849 79.827 103.488C69.4996 109.091 19.7809 86.8736 13.6975 68.066C7.61406 49.2584 24.2488 17.641 43.6769 12.0973Z" fill="#F3DFD8"/>
<path d="M38.21 48.0452V51.9593H20.9478V48.0452H38.21ZM37.9591 30.3982L23.1725 51.9593H19.6431V49.0823L34.5468 27.6048H37.9591V30.3982ZM36.2363 27.6048V31.5357H19.6598V27.6048H36.2363ZM56.68 31.7698L50.0561 51.9593H44.7202L53.7695 27.6048H57.1651L56.68 31.7698ZM62.1832 51.9593L55.5426 31.7698L55.0073 27.6048H58.4363L67.5358 51.9593H62.1832ZM61.8821 42.8933V46.8241H49.019V42.8933H61.8821ZM94.754 27.6048V51.9593H89.7359L79.9506 35.6338V51.9593H74.9325V27.6048H79.9506L89.7526 43.9471V27.6048H94.754ZM41.2544 67.6048V91.9593H36.253V67.6048H41.2544ZM63.7723 85.5863C63.7723 85.1514 63.7053 84.7611 63.5715 84.4154C63.4489 84.0586 63.2147 83.7352 62.869 83.4453C62.5233 83.1442 62.0382 82.8487 61.4137 82.5587C60.7893 82.2688 59.9808 81.9677 58.9883 81.6555C57.8843 81.2986 56.8361 80.8972 55.8437 80.4511C54.8623 80.0051 53.9925 79.4866 53.2342 78.8955C52.4871 78.2934 51.8961 77.5964 51.4612 76.8047C51.0374 76.0129 50.8256 75.0929 50.8256 74.0447C50.8256 73.0299 51.0486 72.1099 51.4946 71.2847C51.9407 70.4484 52.5652 69.7347 53.3681 69.1437C54.171 68.5415 55.1188 68.0787 56.2116 67.7553C57.3156 67.432 58.5255 67.2703 59.8414 67.2703C61.6368 67.2703 63.2035 67.5937 64.5417 68.2404C65.8799 68.8872 66.9169 69.7737 67.6529 70.9C68.4001 72.0263 68.7736 73.3143 68.7736 74.764H63.789C63.789 74.0503 63.6384 73.4258 63.3374 72.8905C63.0474 72.3441 62.6014 71.9148 61.9992 71.6026C61.4082 71.2903 60.661 71.1342 59.7578 71.1342C58.888 71.1342 58.1631 71.268 57.5833 71.5357C57.0034 71.7921 56.5685 72.1434 56.2786 72.5895C55.9886 73.0244 55.8437 73.515 55.8437 74.0614C55.8437 74.474 55.944 74.8476 56.1447 75.1821C56.3566 75.5167 56.6689 75.8289 57.0815 76.1188C57.4941 76.4088 58.0014 76.682 58.6036 76.9385C59.2058 77.195 59.9027 77.4459 60.6945 77.6912C62.0215 78.0926 63.1868 78.5443 64.1904 79.0461C65.2052 79.5479 66.0527 80.111 66.7329 80.7355C67.4132 81.36 67.9261 82.0681 68.2718 82.8598C68.6175 83.6516 68.7904 84.5493 68.7904 85.5529C68.7904 86.6123 68.5841 87.5601 68.1715 88.3965C67.7589 89.2328 67.1623 89.9409 66.3817 90.5208C65.6011 91.1007 64.6699 91.5411 63.5883 91.8422C62.5066 92.1433 61.2967 92.2939 59.9585 92.2939C58.7542 92.2939 57.5665 92.1377 56.3956 91.8255C55.2248 91.5021 54.1598 91.017 53.2008 90.3703C52.2529 89.7235 51.4946 88.8983 50.9259 87.8947C50.3572 86.891 50.0728 85.7034 50.0728 84.3318H55.1077C55.1077 85.0901 55.2248 85.7313 55.4589 86.2554C55.6931 86.7795 56.0221 87.2033 56.4458 87.5267C56.8807 87.8501 57.3937 88.0842 57.9847 88.2292C58.5869 88.3742 59.2448 88.4466 59.9585 88.4466C60.8283 88.4466 61.542 88.324 62.0996 88.0787C62.6683 87.8333 63.0864 87.4932 63.3541 87.0583C63.6329 86.6234 63.7723 86.1327 63.7723 85.5863ZM82.3593 67.6048V91.9593H77.3412V67.6048H82.3593ZM96.9452 67.6048L87.2938 79.6315L81.7237 85.6198L80.8204 80.8693L84.584 75.7174L90.7897 67.6048H96.9452ZM91.2413 91.9593L84.0655 80.702L87.7788 77.5908L97.1794 91.9593H91.2413Z" fill="#0D1B26"/>
</svg>
