<?xml version="1.0" encoding="iso-8859-1"?>
<!-- Generator: Adobe Illustrator 19.0.0, SVG Export Plug-In . SVG Version: 6.00 Build 0)  -->
<svg version="1.1" id="Capa_1" xmlns="http://www.w3.org/2000/svg" xmlns:xlink="http://www.w3.org/1999/xlink" x="0px" y="0px"
	 viewBox="0 0 495 495" style="enable-background:new 0 0 495 495;" xml:space="preserve">
<g>
	<path d="M335,247.51c0-52.659-42.841-95.5-95.5-95.5s-95.5,42.841-95.5,95.5s42.841,95.5,95.5,95.5S335,300.169,335,247.51z
		 M239.5,328.01c-44.388,0-80.5-36.112-80.5-80.5s36.112-80.5,80.5-80.5s80.5,36.112,80.5,80.5S283.888,328.01,239.5,328.01z"/>
	<path d="M495,247.51c0-11.881-8.864-21.724-20.325-23.28c1.793-1.585,2.801-3.998,2.484-6.551c-0.52-4.11-4.26-7.03-8.37-6.52
		c-4.11,0.52-7.03,4.26-6.52,8.37c0.275,2.223,1.499,4.092,3.211,5.265C455.43,227.461,448,236.633,448,247.51
		c0,10.968,7.553,20.203,17.731,22.781c-1.854,1.154-3.191,3.103-3.481,5.438c-0.52,4.11,2.4,7.86,6.51,8.37
		c0.31,0.04,0.63,0.06,0.94,0.06c3.73,0,6.96-2.77,7.43-6.57c0.339-2.67-0.787-5.186-2.745-6.763
		C485.986,269.4,495,259.491,495,247.51z M471.5,256.01c-4.687,0-8.5-3.813-8.5-8.5s3.813-8.5,8.5-8.5s8.5,3.813,8.5,8.5
		S476.187,256.01,471.5,256.01z"/>
	<path d="M72,131.51c0,7.229,2.808,13.811,7.385,18.724c-2.803-0.192-5.595,1.196-7.055,3.805c-2.03,3.62-0.74,8.19,2.87,10.21
		c1.16,0.65,2.42,0.96,3.66,0.96c2.63,0,5.18-1.38,6.55-3.83c1.054-1.879,1.206-4.012,0.61-5.914
		c3.986,2.252,8.584,3.544,13.48,3.544c15.164,0,27.5-12.336,27.5-27.5c0-6.094-1.996-11.73-5.364-16.294
		c0.979-0.294,1.914-0.787,2.734-1.496c3.14-2.71,3.49-7.44,0.79-10.58c-2.7-3.14-7.44-3.49-10.58-0.79
		c-1.453,1.254-2.3,2.941-2.532,4.702c-3.765-1.94-8.029-3.042-12.548-3.042C84.336,104.01,72,116.347,72,131.51z M99.5,119.01
		c6.893,0,12.5,5.607,12.5,12.5c0,6.893-5.607,12.5-12.5,12.5S87,138.403,87,131.51C87,124.618,92.607,119.01,99.5,119.01z"/>
	<path d="M77.1,316.76c-1.63-3.81-6.04-5.58-9.84-3.96c-3.81,1.63-5.59,6.03-3.96,9.84c1.22,2.85,3.99,4.56,6.9,4.56
		c0.98,0,1.98-0.19,2.94-0.6C76.95,324.97,78.72,320.57,77.1,316.76z"/>
	<path d="M346.16,97.38c-2.54,3.27-1.94,7.99,1.34,10.52c1.36,1.06,2.98,1.57,4.58,1.57c2.24,0,4.46-1,5.94-2.91
		c2.54-3.27,1.94-7.98-1.34-10.52C353.41,93.51,348.7,94.1,346.16,97.38z"/>
	<path d="M322.2,82.93c-2.02,3.62-0.71,8.19,2.91,10.2c1.15,0.64,2.4,0.95,3.63,0.95c2.64,0,5.2-1.4,6.57-3.86
		c2.01-3.62,0.7-8.19-2.92-10.2h0.01C328.77,78.01,324.21,79.31,322.2,82.93z"/>
	<path d="M194.96,418.35c-4.01-1.05-8.1,1.36-9.15,5.37c-1.04,4.01,1.36,8.1,5.37,9.14c0.63,0.17,1.27,0.25,1.89,0.25
		c3.34,0,6.38-2.24,7.26-5.62C201.37,423.49,198.97,419.39,194.96,418.35z"/>
	<path d="M135.63,95.42c1.43,2.27,3.87,3.51,6.37,3.52c1.36,0,2.73-0.37,3.97-1.15c3.51-2.2,4.58-6.82,2.38-10.34
		c-2.2-3.51-6.83-4.57-10.34-2.37C134.5,87.28,133.44,91.9,135.63,95.42z"/>
	<path d="M169.6,409.63c-3.8-1.65-8.22,0.1-9.86,3.91c-1.64,3.8,0.11,8.21,3.91,9.85c0.97,0.42,1.98,0.62,2.97,0.62
		c2.9,0,5.67-1.69,6.89-4.53C175.16,415.68,173.4,411.27,169.6,409.63z"/>
	<path d="M105.34,362.21c-2.69-3.15-7.43-3.51-10.58-0.82c-3.14,2.69-3.51,7.43-0.81,10.57c1.48,1.74,3.58,2.63,5.69,2.63
		c1.73,0,3.47-0.6,4.88-1.81C107.67,370.09,108.03,365.36,105.34,362.21z"/>
	<path d="M145.87,397.15c-3.51-2.2-8.14-1.14-10.34,2.37c-2.2,3.51-1.14,8.14,2.37,10.34c1.24,0.77,2.61,1.14,3.97,1.14
		c2.5,0,4.94-1.24,6.37-3.51C150.44,403.98,149.38,399.35,145.87,397.15z"/>
	<path d="M125.06,391.79c2.71-3.13,2.36-7.87-0.78-10.57c-3.14-2.71-7.87-2.36-10.58,0.78c-2.7,3.14-2.35,7.87,0.79,10.58
		c1.42,1.22,3.16,1.82,4.89,1.82C121.49,394.4,123.58,393.51,125.06,391.79z"/>
	<path d="M296.33,72.29c-1.44,3.88,0.54,8.2,4.42,9.64c0.86,0.32,1.74,0.47,2.61,0.47c3.04,0,5.91-1.87,7.03-4.9
		c1.44-3.88-0.54-8.2-4.43-9.64C302.08,66.42,297.76,68.4,296.33,72.29z"/>
	<path d="M59.34,217.45c3.48,0,6.6-2.43,7.33-5.97c0.84-4.06-1.76-8.03-5.82-8.87c-4.05-0.84-8.02,1.76-8.87,5.82
		c-0.84,4.05,1.77,8.02,5.82,8.86C58.32,217.4,58.83,217.45,59.34,217.45z"/>
	<path d="M48.26,237.3c-0.22,4.14,2.96,7.66,7.1,7.88c0.13,0.01,0.26,0.01,0.39,0.01c3.97,0,7.28-3.1,7.49-7.11
		c0.21-4.13-2.96-7.66-7.1-7.88C52,229.98,48.48,233.16,48.26,237.3z"/>
	<path d="M56.38,273.15c0.25,0,0.49-0.01,0.74-0.03c4.13-0.41,7.14-4.08,6.74-8.2c-0.41-4.12-4.08-7.14-8.2-6.73
		c-4.12,0.4-7.14,4.07-6.73,8.19C49.31,270.26,52.57,273.15,56.38,273.15z"/>
	<path d="M159.87,81.41c1.23,2.84,3.99,4.54,6.9,4.54c0.99,0,1.99-0.2,2.96-0.62c3.8-1.64,5.56-6.05,3.92-9.85
		c-1.64-3.81-6.05-5.56-9.85-3.93C159.99,73.19,158.24,77.6,159.87,81.41z"/>
	<path d="M185.96,71.26c0.88,3.38,3.93,5.63,7.26,5.63c0.62,0,1.25-0.08,1.88-0.24c0.01,0,0.01,0,0.01,0c4-1.04,6.41-5.14,5.38-9.15
		c-1.04-4-5.13-6.42-9.14-5.38C187.34,63.16,184.93,67.25,185.96,71.26z"/>
	<path d="M241.23,63.36c-0.2,4.14,2.99,7.66,7.13,7.86c0.12,0.01,0.24,0.01,0.37,0.01c3.97,0,7.29-3.12,7.49-7.13
		c0.2-4.14-2.99-7.66-7.13-7.86C244.95,56.04,241.44,59.22,241.23,63.36z"/>
	<path d="M221.35,423.1c-4.12-0.42-7.8,2.58-8.22,6.7c-0.42,4.12,2.58,7.8,6.7,8.22c0.26,0.03,0.52,0.04,0.77,0.04
		c3.8,0,7.06-2.88,7.45-6.74C228.47,427.2,225.47,423.52,221.35,423.1z"/>
	<path d="M269.12,65.72c-0.83,4.05,1.79,8.02,5.85,8.85c0.5,0.1,1.01,0.15,1.51,0.15c3.49,0,6.61-2.45,7.34-6
		c0.82-4.06-1.79-8.02-5.85-8.85S269.95,61.66,269.12,65.72z"/>
	<path d="M74.12,185.71c1.45-3.88-0.51-8.2-4.4-9.65c-3.87-1.45-8.2,0.51-9.65,4.39s0.52,8.21,4.4,9.66
		c0.86,0.32,1.75,0.48,2.62,0.48C70.13,190.59,72.99,188.73,74.12,185.71z"/>
	<path d="M213.3,65.22c0.39,3.86,3.65,6.74,7.45,6.74c0.25,0,0.51-0.01,0.77-0.04c4.12-0.42,7.12-4.1,6.7-8.22s-4.1-7.12-8.22-6.7
		C215.88,57.42,212.88,61.1,213.3,65.22z"/>
	<path d="M61.22,300.7c0.61,0,1.23-0.08,1.86-0.24c4.01-1.02,6.43-5.11,5.41-9.12c-1.03-4.01-5.11-6.44-9.12-5.41
		c-4.02,1.02-6.44,5.1-5.41,9.12C54.82,298.44,57.87,300.7,61.22,300.7z"/>
	<path d="M83.12,352.02c1.35,0,2.72-0.37,3.95-1.13c3.52-2.19,4.6-6.81,2.41-10.33s-6.81-4.6-10.33-2.41
		c-3.52,2.19-4.59,6.81-2.41,10.33C78.16,350.76,80.61,352.02,83.12,352.02z"/>
	<path d="M411.4,331.98c1.83-3.71,0.3-8.21-3.41-10.04c-3.72-1.83-8.22-0.3-10.05,3.42c-1.83,3.71-0.3,8.21,3.42,10.04
		c1.06,0.52,2.19,0.77,3.31,0.77C407.43,336.17,410.09,334.63,411.4,331.98z"/>
	<path d="M390.54,149.88c1.48,0,2.98-0.43,4.29-1.35c3.4-2.37,4.23-7.04,1.86-10.44c-2.37-3.4-7.05-4.23-10.44-1.86
		c-3.4,2.37-4.23,7.04-1.86,10.44C385.84,148.76,388.17,149.88,390.54,149.88z"/>
	<path d="M390.45,360.24c2.36,0,4.69-1.12,6.15-3.21c2.37-3.39,1.54-8.07-1.86-10.44c-3.39-2.37-8.07-1.54-10.44,1.86
		c-2.37,3.39-1.54,8.07,1.86,10.44C387.47,359.8,388.96,360.24,390.45,360.24z"/>
	<path d="M398.02,169.78c0,0.01,0,0.01,0,0.01c1.3,2.65,3.96,4.19,6.73,4.19c1.11,0,2.24-0.25,3.3-0.77
		c3.72-1.83,5.26-6.32,3.43-10.04c-1.83-3.71-6.32-5.25-10.04-3.42C397.72,161.57,396.19,166.07,398.02,169.78z"/>
	<path d="M300.6,413.15c-3.88,1.43-5.87,5.74-4.44,9.63c1.12,3.03,3.99,4.91,7.04,4.91c0.86,0,1.74-0.15,2.59-0.47
		c3.89-1.43,5.88-5.74,4.45-9.63C308.8,413.7,304.49,411.71,300.6,413.15z"/>
	<path d="M347.4,387.2c-3.27,2.54-3.87,7.25-1.34,10.53c1.48,1.9,3.7,2.91,5.94,2.91c1.6,0,3.22-0.52,4.58-1.57
		c3.28-2.54,3.88-7.25,1.34-10.52C355.39,385.27,350.68,384.67,347.4,387.2z"/>
	<path d="M325,401.97c-3.63,2.01-4.93,6.57-2.93,10.19c1.37,2.47,3.93,3.87,6.57,3.87c1.23,0,2.48-0.31,3.63-0.95
		c3.62-2,4.93-6.57,2.92-10.19C333.18,401.27,328.62,399.96,325,401.97z"/>
	<path d="M367.67,115.28c-3,2.86-3.11,7.61-0.26,10.61c1.47,1.55,3.45,2.33,5.43,2.33c1.86,0,3.72-0.69,5.17-2.07
		c3-2.86,3.12-7.6,0.27-10.6C375.42,112.55,370.67,112.43,367.67,115.28z"/>
	<path d="M367.32,369.22c-2.85,3-2.74,7.75,0.26,10.6c1.45,1.39,3.32,2.07,5.17,2.07c1.98,0,3.96-0.78,5.44-2.33
		c2.85-3,2.74-7.74-0.26-10.6C374.92,366.1,370.18,366.22,367.32,369.22z"/>
	<path d="M420.26,282.9c0.38,0.06,0.77,0.09,1.14,0.09c3.64,0,6.84-2.66,7.41-6.37c0.62-4.09-2.19-7.92-6.28-8.54
		c-4.1-0.63-7.92,2.18-8.55,6.28C413.35,278.45,416.17,282.28,420.26,282.9z"/>
	<path d="M248.18,423.8c-4.14,0.2-7.33,3.72-7.12,7.85c0.19,4.02,3.51,7.14,7.48,7.14c0.13,0,0.25-0.01,0.38-0.01
		c4.13-0.2,7.32-3.72,7.12-7.86C255.84,426.78,252.32,423.59,248.18,423.8z"/>
	<path d="M421.4,227.22c0.37,0,0.75-0.03,1.13-0.09c4.09-0.62,6.91-4.44,6.29-8.54c-0.62-4.09-4.44-6.91-8.54-6.29
		c-4.09,0.62-6.91,4.44-6.29,8.54C414.55,224.55,417.75,227.22,421.4,227.22z"/>
	<path d="M412.88,185.31c-3.95,1.24-6.15,5.44-4.92,9.4c1.01,3.2,3.97,5.26,7.16,5.26c0.74,0,1.5-0.11,2.24-0.35
		c3.95-1.23,6.16-5.44,4.92-9.39C421.04,186.28,416.84,184.07,412.88,185.31z"/>
	<path d="M417.32,295.57c-3.95-1.24-8.16,0.96-9.4,4.91c-1.25,3.95,0.95,8.16,4.9,9.4c0.75,0.24,1.51,0.35,2.25,0.35
		c3.19,0,6.15-2.05,7.15-5.25C423.47,301.03,421.27,296.82,417.32,295.57z"/>
	<path d="M423.5,240.1c-4.14,0-7.5,3.36-7.5,7.5c0,4.15,3.36,7.5,7.5,7.5c4.15,0,7.5-3.36,7.5-7.5S427.64,240.1,423.5,240.1z"/>
	<path d="M274.81,420.47c-4.06,0.82-6.69,4.78-5.86,8.84c0.72,3.56,3.84,6.01,7.34,6.01c0.49,0,0.99-0.05,1.5-0.15
		c4.06-0.82,6.68-4.78,5.86-8.84C282.82,422.27,278.86,419.65,274.81,420.47z"/>
	<path d="M356,193.17c1.27,2.72,3.98,4.33,6.8,4.33c1.06,0,2.14-0.23,3.17-0.71c3.75-1.75,5.37-6.22,3.62-9.97s-6.21-5.37-9.97-3.62
		C355.87,184.95,354.25,189.42,356,193.17z"/>
	<path d="M274.01,115.7c-1.27,3.95,0.9,8.17,4.84,9.44c0.76,0.24,1.54,0.36,2.3,0.36c3.17,0,6.11-2.03,7.14-5.21
		c1.26-3.94-0.9-8.17-4.85-9.43C279.5,109.59,275.27,111.76,274.01,115.7z"/>
	<path d="M246.34,111.47c-0.43,4.12,2.57,7.8,6.68,8.23c0.27,0.03,0.53,0.04,0.79,0.04c3.79,0,7.05-2.86,7.45-6.72
		c0.43-4.12-2.56-7.81-6.68-8.24C250.46,104.35,246.77,107.35,246.34,111.47z"/>
	<path d="M225.11,104.73c-4.12,0.41-7.12,4.09-6.71,8.21c0.38,3.87,3.65,6.75,7.45,6.75c0.25,0,0.5-0.01,0.76-0.03
		c4.12-0.42,7.12-4.09,6.71-8.21C232.91,107.32,229.24,104.32,225.11,104.73z"/>
	<path d="M370.23,209.1c-4.03,0.94-6.54,4.98-5.59,9.01c0.8,3.46,3.89,5.8,7.29,5.8c0.57,0,1.14-0.07,1.72-0.2
		c4.03-0.95,6.53-4.98,5.59-9.01C378.3,210.66,374.27,208.16,370.23,209.1z"/>
	<path d="M334.42,139.87c-3.11-2.74-7.84-2.44-10.59,0.67c-2.73,3.1-2.44,7.84,0.67,10.58c1.43,1.26,3.2,1.88,4.96,1.88
		c2.08,0,4.14-0.86,5.63-2.54C337.82,147.35,337.53,142.61,334.42,139.87z"/>
	<path d="M138.9,349.82c1.46,1.44,3.36,2.15,5.25,2.15c1.94,0,3.88-0.75,5.35-2.24c2.91-2.95,2.87-7.7-0.09-10.61
		c-2.95-2.9-7.7-2.86-10.6,0.1c-2.91,2.95-2.87,7.7,0.08,10.6H138.9z"/>
	<path d="M99.94,214.04c-0.96,4.03,1.52,8.07,5.55,9.04c0.58,0.14,1.17,0.2,1.75,0.2c3.39,0,6.46-2.31,7.29-5.75
		c0.96-4.03-1.52-8.08-5.55-9.04C104.95,207.52,100.9,210.01,99.94,214.04z"/>
	<path d="M150.04,152.58c1.76,0,3.52-0.61,4.94-1.85c3.12-2.73,3.43-7.47,0.71-10.59c-2.73-3.11-7.47-3.43-10.59-0.7
		c-3.12,2.72-3.43,7.46-0.7,10.58C145.88,151.72,147.96,152.58,150.04,152.58z"/>
	<path d="M136.98,170.06c2.5-3.31,1.84-8.01-1.46-10.51c-3.3-2.5-8.01-1.85-10.51,1.46c-2.49,3.3-1.84,8.01,1.46,10.5
		c1.35,1.03,2.94,1.52,4.52,1.52C133.26,173.03,135.5,172.01,136.98,170.06z"/>
	<path d="M96.07,243.26c-0.12,4.14,3.14,7.6,7.29,7.72c0.07,0,0.14,0,0.21,0c4.05,0,7.38-3.22,7.5-7.29
		c0.12-4.14-3.14-7.59-7.28-7.71C99.64,235.86,96.19,239.12,96.07,243.26z"/>
	<path d="M170.04,355.62c-3.49-2.24-8.13-1.24-10.37,2.25c-2.24,3.48-1.24,8.12,2.25,10.36c1.25,0.81,2.66,1.2,4.05,1.2
		c2.46,0,4.88-1.22,6.31-3.44C174.53,362.5,173.52,357.86,170.04,355.62z"/>
	<path d="M126.34,330.45c1.43,0,2.88-0.41,4.16-1.27c3.44-2.3,4.37-6.96,2.07-10.4s-6.96-4.37-10.4-2.07
		c-3.45,2.3-4.38,6.96-2.07,10.4C121.54,329.27,123.92,330.45,126.34,330.45z"/>
	<path d="M116.51,196.93c2.81,0,5.5-1.59,6.78-4.3c1.77-3.74,0.17-8.21-3.57-9.98c-3.74-1.78-8.22-0.18-9.99,3.57
		c-1.77,3.74-0.17,8.21,3.57,9.98C114.34,196.69,115.43,196.93,116.51,196.93z"/>
	<path d="M172.86,136.44c1.25,0,2.51-0.31,3.67-0.97c3.61-2.03,4.89-6.61,2.86-10.21c-2.04-3.61-6.61-4.89-10.22-2.86
		c-3.61,2.03-4.89,6.61-2.85,10.22C167.7,135.06,170.24,136.44,172.86,136.44z"/>
	<path d="M348.43,173.53c1.56,0,3.14-0.49,4.49-1.5c3.31-2.49,3.99-7.19,1.5-10.5c-2.48-3.32-7.18-3.99-10.5-1.5
		c-3.31,2.48-3.98,7.18-1.5,10.5C343.89,172.49,346.15,173.53,348.43,173.53z"/>
	<path d="M284.9,367.77c-3.87,1.46-5.83,5.79-4.37,9.66c1.13,3.01,3.99,4.86,7.02,4.86c0.88,0,1.77-0.16,2.65-0.49
		c3.87-1.46,5.83-5.79,4.37-9.66C293.1,368.26,288.78,366.3,284.9,367.77z"/>
	<path d="M105.6,278.85c0.43,0,0.87-0.04,1.31-0.11c4.08-0.72,6.8-4.62,6.08-8.7c-0.72-4.07-4.61-6.8-8.69-6.08
		c-4.08,0.73-6.8,4.62-6.08,8.7C98.86,276.29,102.03,278.85,105.6,278.85z"/>
	<path d="M300.21,125.54c-2.05,3.6-0.8,8.18,2.8,10.23c1.17,0.67,2.45,0.98,3.71,0.98c2.6,0,5.14-1.36,6.52-3.79
		c2.05-3.59,0.8-8.17-2.8-10.22C306.84,120.69,302.26,121.94,300.21,125.54z"/>
	<path d="M334.44,352.4c1.89,0,3.78-0.7,5.24-2.13c2.96-2.89,3.02-7.64,0.13-10.6c-2.89-2.97-7.64-3.03-10.61-0.13
		c-2.96,2.89-3.02,7.63-0.13,10.6C330.54,351.65,332.49,352.4,334.44,352.4z"/>
	<path d="M193.58,367.56c-3.87-1.49-8.21,0.45-9.69,4.31c-1.48,3.87,0.45,8.21,4.32,9.69c0.88,0.34,1.79,0.5,2.68,0.5
		c3.02,0,5.86-1.83,7.01-4.82c1.48-3.87-0.46-8.2-4.32-9.69C193.58,367.56,193.58,367.56,193.58,367.56z"/>
	<path d="M198.49,125.31c0.75,0,1.51-0.11,2.26-0.35c3.95-1.25,6.14-5.46,4.89-9.41c-1.25-3.95-5.46-6.14-9.41-4.89
		c-3.95,1.24-6.14,5.46-4.89,9.41C192.35,123.27,195.3,125.31,198.49,125.31z"/>
	<path d="M113.29,305.73c0.93,0,1.88-0.18,2.79-0.55c3.85-1.54,5.71-5.91,4.17-9.75c-1.55-3.84-5.92-5.71-9.76-4.16
		c-3.84,1.54-5.71,5.91-4.16,9.75C107.5,303.95,110.32,305.73,113.29,305.73z"/>
	<path d="M374.67,264.6c-4.08-0.74-7.98,1.96-8.72,6.04c-0.74,4.08,1.96,7.98,6.03,8.72c0.46,0.08,0.91,0.12,1.35,0.12
		c3.56,0,6.72-2.53,7.37-6.16C381.45,269.25,378.74,265.34,374.67,264.6z"/>
	<path d="M318.86,358.24c-2.22-3.5-6.86-4.52-10.35-2.3c-3.49,2.23-4.52,6.87-2.29,10.36c1.43,2.24,3.85,3.47,6.33,3.47
		c1.38,0,2.77-0.38,4.02-1.18C320.06,366.36,321.09,361.73,318.86,358.24z"/>
	<path d="M372.45,301.64c1.56-3.83-0.28-8.21-4.11-9.78c-3.84-1.56-8.21,0.28-9.78,4.12c-1.56,3.83,0.28,8.21,4.11,9.77
		c0.93,0.38,1.89,0.56,2.83,0.56C368.46,306.31,371.27,304.55,372.45,301.64z"/>
	<path d="M375.29,236.62c-4.14,0.11-7.42,3.55-7.31,7.69c0.1,4.07,3.44,7.31,7.49,7.31c0.06,0,0.13,0,0.19,0
		c4.14-0.11,7.42-3.55,7.31-7.69C382.87,239.79,379.43,236.52,375.29,236.62z"/>
	<path d="M356.54,317.23c-3.43-2.31-8.09-1.4-10.41,2.03c-2.31,3.43-1.41,8.1,2.03,10.41c1.28,0.87,2.74,1.28,4.18,1.28
		c2.41,0,4.78-1.16,6.23-3.3C360.88,324.21,359.98,319.55,356.54,317.23z"/>
	<path d="M267.93,380.74c-0.544-3.479-3.399-6.017-6.757-6.312c-3.559-8.461-11.933-14.418-21.673-14.418
		c-9.696,0-18.037,5.903-21.624,14.302c-3.627-0.004-6.811,2.618-7.407,6.307c-0.65,4.09,2.13,7.94,6.23,8.59
		c0.001,0,0.002,0,0.003,0c2.554,10.212,11.805,17.8,22.797,17.8c11.008,0,20.268-7.609,22.807-17.843
		C266.049,388.253,268.526,384.62,267.93,380.74z M239.5,392.01c-4.687,0-8.5-3.813-8.5-8.5s3.813-8.5,8.5-8.5s8.5,3.813,8.5,8.5
		S244.187,392.01,239.5,392.01z"/>
	<path d="M366.34,432.76c-3.42,2.35-4.29,7.02-1.94,10.43c1.45,2.12,3.8,3.26,6.19,3.26c1.46,0,2.94-0.43,4.23-1.32
		c3.42-2.34,4.29-7.01,1.95-10.42C374.42,431.29,369.75,430.42,366.34,432.76z"/>
	<path d="M292.51,465.7c-4.03,0.97-6.5,5.03-5.53,9.05c0.83,3.44,3.9,5.74,7.28,5.74c0.59,0,1.18-0.07,1.77-0.21
		c4.03-0.97,6.5-5.03,5.53-9.05C300.58,467.2,296.53,464.73,292.51,465.7z"/>
	<path d="M211.8,470.31c-4.11-0.51-7.86,2.42-8.36,6.53c-0.51,4.11,2.41,7.85,6.53,8.36c0.31,0.04,0.61,0.05,0.92,0.05
		c3.73,0,6.97-2.78,7.43-6.58C218.83,474.56,215.91,470.82,211.8,470.31z"/>
	<path d="M366.5,62.35c1.29,0.89,2.77,1.32,4.24,1.32c2.39,0,4.73-1.14,6.19-3.25c2.34-3.42,1.48-8.09-1.94-10.43
		c-3.41-2.35-8.08-1.48-10.43,1.93C362.22,55.33,363.08,60,366.5,62.35z"/>
	<path d="M238.82,472c-4.14-0.01-7.51,3.34-7.52,7.48c-0.01,4.14,3.34,7.51,7.48,7.52c0.01,0,0.01,0,0.02,0
		c4.13,0,7.49-3.35,7.5-7.49C246.31,475.37,242.96,472.01,238.82,472z"/>
	<path d="M343.13,446.71c-3.68,1.91-5.11,6.44-3.19,10.12c1.34,2.56,3.95,4.03,6.66,4.03c1.17,0,2.35-0.27,3.46-0.85
		c3.67-1.91,5.1-6.44,3.18-10.12C351.33,446.22,346.8,444.79,343.13,446.71z"/>
	<path d="M265.86,470.46c-4.12,0.48-7.06,4.21-6.58,8.32c0.45,3.82,3.69,6.63,7.44,6.63c0.29,0,0.59-0.02,0.88-0.05
		c4.11-0.48,7.06-4.21,6.58-8.32C273.7,472.92,269.97,469.98,265.86,470.46z"/>
	<path d="M318.4,457.74c-3.88,1.46-5.85,5.78-4.39,9.66c1.13,3.01,3.99,4.87,7.02,4.87c0.88,0,1.77-0.16,2.64-0.48
		c3.87-1.46,5.84-5.78,4.38-9.66C326.6,458.25,322.27,456.29,318.4,457.74z"/>
	<path d="M466.36,296.88c-4.02-1.01-8.09,1.43-9.1,5.45c-1.01,4.02,1.43,8.09,5.45,9.1c0.61,0.16,1.23,0.23,1.83,0.23
		c3.36,0,6.41-2.27,7.27-5.68C472.82,301.97,470.38,297.89,466.36,296.88z"/>
	<path d="M430.01,122.54c1.48,0,2.97-0.44,4.28-1.35c3.4-2.36,4.23-7.04,1.87-10.44c-2.37-3.4-7.05-4.23-10.45-1.86
		c-3.39,2.36-4.23,7.04-1.86,10.44C425.3,121.42,427.64,122.54,430.01,122.54z"/>
	<path d="M185.18,465.39c-4.02-1-8.08,1.44-9.08,5.47c-1,4.02,1.45,8.08,5.46,9.08c0.61,0.15,1.22,0.23,1.82,0.23
		c3.36,0,6.42-2.28,7.27-5.7C191.65,470.45,189.2,466.38,185.18,465.39z"/>
	<path d="M437.96,142.44c1.34,2.54,3.94,3.99,6.63,3.99c1.19,0,2.39-0.28,3.51-0.88c3.66-1.94,5.05-6.48,3.11-10.14
		s-6.48-5.05-10.14-3.11S436.02,138.78,437.96,142.44z"/>
	<path d="M457.32,192.92c0.85,3.41,3.91,5.69,7.27,5.69c0.6,0,1.21-0.08,1.82-0.23c4.02-1,6.46-5.07,5.46-9.09s-5.07-6.47-9.09-5.46
		C458.76,184.83,456.31,188.9,457.32,192.92z"/>
	<path d="M387.71,416.13c-3.11,2.73-3.41,7.47-0.68,10.58c1.48,1.69,3.55,2.55,5.64,2.55c1.75,0,3.52-0.62,4.95-1.87
		c3.11-2.74,3.41-7.47,0.67-10.58C395.56,413.7,390.82,413.39,387.71,416.13z"/>
	<path d="M449.17,167.09c1.15,2.98,3.99,4.81,7.01,4.81c0.89,0,1.8-0.16,2.68-0.49c3.87-1.49,5.8-5.83,4.32-9.69
		c-1.49-3.87-5.82-5.8-9.69-4.32C449.62,158.89,447.69,163.22,449.17,167.09z"/>
	<path d="M458.78,323.83c-3.87-1.49-8.21,0.44-9.7,4.3c-1.48,3.87,0.44,8.21,4.31,9.69c0.88,0.35,1.8,0.51,2.69,0.51
		c3.02,0,5.86-1.83,7-4.81C464.57,329.66,462.64,325.32,458.78,323.83z"/>
	<path d="M448,349.64c-3.66-1.95-8.2-0.56-10.15,3.1c-1.94,3.65-0.56,8.2,3.1,10.14c1.12,0.6,2.33,0.88,3.52,0.88
		c2.68,0,5.28-1.44,6.62-3.98C453.04,356.12,451.65,351.58,448,349.64z"/>
	<path d="M387.85,78.99c1.42,1.26,3.19,1.87,4.95,1.87c2.08,0.01,4.15-0.85,5.63-2.54c2.74-3.11,2.44-7.85-0.67-10.58
		c-3.1-2.74-7.84-2.44-10.58,0.67C384.44,71.52,384.74,76.25,387.85,78.99z"/>
	<path d="M417.52,396.46c-3.09-2.76-7.83-2.49-10.59,0.6c-2.76,3.08-2.49,7.82,0.59,10.59c1.44,1.27,3.22,1.9,5,1.9
		c2.06,0,4.11-0.84,5.59-2.5C420.87,403.96,420.61,399.22,417.52,396.46z"/>
	<path d="M412.66,100.58c1.77,0,3.56-0.62,4.99-1.9c3.09-2.76,3.36-7.5,0.6-10.59c-2.76-3.09-7.5-3.36-10.59-0.6
		c-3.09,2.76-3.36,7.5-0.6,10.59C408.54,99.74,410.59,100.58,412.66,100.58z"/>
	<path d="M434.17,373.97c-3.4-2.38-8.07-1.54-10.44,1.85c-2.37,3.4-1.54,8.08,1.86,10.45c1.3,0.91,2.8,1.35,4.28,1.35
		c2.37,0,4.7-1.12,6.16-3.21C438.4,381.01,437.57,376.34,434.17,373.97z"/>
	<path d="M131.43,49.65c1.18,0,2.37-0.27,3.49-0.86c3.66-1.94,5.06-6.47,3.13-10.14c-1.93-3.66-6.47-5.06-10.13-3.13
		c-3.66,1.93-5.07,6.47-3.13,10.13C126.13,48.2,128.73,49.65,131.43,49.65z"/>
	<path d="M30.52,146.36c1.11,0.58,2.3,0.86,3.48,0.86c2.7,0,5.3-1.46,6.64-4.01c1.93-3.67,0.52-8.2-3.14-10.13
		c-3.67-1.93-8.21-0.52-10.13,3.15C25.44,139.89,26.85,144.43,30.52,146.36z"/>
	<path d="M8.27,226.88c0.31,0.04,0.61,0.06,0.91,0.06c3.74,0,6.98-2.8,7.44-6.61c0.49-4.11-2.44-7.85-6.55-8.34
		c-4.11-0.5-7.85,2.43-8.34,6.55C1.23,222.65,4.16,226.38,8.27,226.88z"/>
	<path d="M44.22,121.96c1.3,0.9,2.79,1.33,4.26,1.33c2.38,0,4.72-1.13,6.18-3.23c0-0.01,0-0.01,0-0.01c2.35-3.4,1.5-8.07-1.91-10.43
		c-3.41-2.35-8.08-1.5-10.43,1.91C39.96,114.94,40.81,119.61,44.22,121.96z"/>
	<path d="M12.41,199.2c0.6,0.14,1.2,0.22,1.79,0.22c3.37,0,6.44-2.29,7.28-5.71c0.99-4.03-1.47-8.09-5.49-9.08
		c-4.02-0.99-8.09,1.47-9.08,5.49C5.92,194.15,8.38,198.21,12.41,199.2z"/>
	<path d="M292.77,29.35c-0.01,0-0.01,0-0.01,0c0.6,0.14,1.2,0.21,1.78,0.21c3.38,0,6.45-2.3,7.29-5.73
		c0.98-4.02-1.49-8.08-5.52-9.06c-4.02-0.98-8.08,1.49-9.06,5.52C286.27,24.31,288.74,28.37,292.77,29.35z"/>
	<path d="M239.08,23h0.01c4.14-0.01,7.49-3.38,7.49-7.52c-0.01-4.14-3.38-7.49-7.52-7.48c-4.14,0-7.49,3.37-7.48,7.51
		C231.59,19.65,234.94,23,239.08,23z"/>
	<path d="M159.36,457.27c-3.86-1.48-8.2,0.46-9.68,4.33s0.46,8.2,4.33,9.68c0.88,0.34,1.78,0.5,2.67,0.5c3.02,0,5.87-1.84,7.01-4.82
		C165.17,463.09,163.23,458.75,159.36,457.27z"/>
	<path d="M266.13,24.55c0.3,0.04,0.59,0.05,0.89,0.05c3.75,0,6.98-2.8,7.43-6.62c0.49-4.11-2.45-7.84-6.56-8.32
		c-4.12-0.49-7.85,2.45-8.33,6.56C259.07,20.34,262.01,24.07,266.13,24.55z"/>
	<path d="M183.64,29.77c0.59,0,1.2-0.07,1.8-0.22c4.02-0.99,6.48-5.06,5.48-9.08c-0.99-4.02-5.06-6.47-9.08-5.48
		c-4.02,0.99-6.47,5.06-5.48,9.08C177.21,27.49,180.27,29.77,183.64,29.77z"/>
	<path d="M156.92,38.12c0.89,0,1.79-0.15,2.67-0.49c3.87-1.47,5.82-5.81,4.34-9.68c-1.47-3.87-5.81-5.81-9.68-4.34
		c-3.87,1.48-5.81,5.81-4.33,9.68C151.05,36.28,153.9,38.12,156.92,38.12z"/>
	<path d="M107.51,64.18c1.47,0,2.96-0.43,4.26-1.34c3.41-2.36,4.25-7.03,1.89-10.43c-2.36-3.41-7.03-4.26-10.43-1.9
		c-3.41,2.36-4.26,7.04-1.9,10.44C102.79,63.05,105.13,64.18,107.51,64.18z"/>
	<path d="M85.5,81.47c1.78,0,3.55-0.62,4.98-1.89c3.1-2.75,3.38-7.49,0.63-10.59s-7.49-3.38-10.59-0.63
		c-3.1,2.76-3.38,7.5-0.62,10.59C81.38,80.62,83.44,81.47,85.5,81.47z"/>
	<path d="M211.14,24.72c0.31,0,0.61-0.02,0.92-0.06c4.11-0.5,7.04-4.24,6.54-8.35s-4.24-7.04-8.35-6.54
		c-4.11,0.5-7.04,4.24-6.54,8.35C204.17,21.93,207.41,24.72,211.14,24.72z"/>
	<path d="M60.77,99.39c1.42,1.26,3.2,1.88,4.96,1.88c2.08,0,4.14-0.85,5.62-2.53c2.75-3.1,2.46-7.84-0.64-10.58
		c-3.1-2.75-7.84-2.46-10.59,0.64C57.38,91.9,57.66,96.64,60.77,99.39z"/>
	<path d="M19.86,172.22c0.87,0.33,1.77,0.49,2.66,0.49c3.02,0,5.87-1.85,7.01-4.84c1.47-3.87-0.48-8.2-4.35-9.68
		c-3.87-1.47-8.2,0.48-9.67,4.35C14.04,166.42,15.98,170.75,19.86,172.22z"/>
	<path d="M60.64,395.46c-3.11,2.74-3.4,7.48-0.66,10.58c1.49,1.68,3.55,2.53,5.63,2.53c1.76,0,3.53-0.61,4.96-1.88
		c3.1-2.74,3.4-7.48,0.65-10.58C68.48,393,63.74,392.71,60.64,395.46z"/>
	<path d="M90.34,415.28c-3.09-2.75-7.83-2.47-10.59,0.62c-2.75,3.1-2.47,7.84,0.62,10.59c1.43,1.27,3.21,1.9,4.98,1.9
		c2.07,0,4.13-0.85,5.61-2.52C93.71,422.78,93.44,418.04,90.34,415.28z"/>
	<path d="M40.54,351.6c-1.93-3.67-6.46-5.09-10.13-3.16c-3.67,1.92-5.08,6.45-3.16,10.12c1.34,2.56,3.95,4.02,6.65,4.02
		c1.17,0,2.37-0.28,3.48-0.86C41.04,359.8,42.46,355.27,40.54,351.6z"/>
	<path d="M44.1,372.86c-3.4,2.35-4.26,7.02-1.91,10.43c1.45,2.11,3.8,3.25,6.18,3.25c1.47,0,2.95-0.43,4.25-1.33
		c3.41-2.35,4.27-7.02,1.92-10.43C52.19,371.37,47.51,370.51,44.1,372.86z"/>
	<path d="M134.73,446.1c-3.66-1.94-8.2-0.54-10.14,3.12c-1.93,3.66-0.53,8.2,3.13,10.14c1.12,0.59,2.32,0.87,3.5,0.87
		c2.69,0,5.29-1.45,6.64-4C139.79,452.57,138.39,448.03,134.73,446.1z"/>
	<path d="M7.5,254.86c4.14,0,7.5-3.36,7.5-7.5c0-4.14-3.36-7.5-7.5-7.5c-4.14,0-7.5,3.36-7.5,7.5C0,251.5,3.35,254.86,7.5,254.86z"
		/>
	<path d="M111.61,432.03c-3.4-2.36-8.07-1.52-10.44,1.88c-2.36,3.41-1.51,8.08,1.89,10.44c1.3,0.91,2.79,1.34,4.27,1.34
		c2.37,0,4.71-1.12,6.17-3.22C115.86,439.07,115.01,434.39,111.61,432.03z"/>
	<path d="M318.62,37.34c0.88,0.32,1.77,0.48,2.65,0.48c3.03,0,5.88-1.85,7.02-4.86c1.46-3.87-0.5-8.2-4.38-9.66
		c-3.87-1.46-8.2,0.5-9.66,4.37C312.79,31.55,314.75,35.88,318.62,37.34z"/>
	<path d="M10.04,282.73c4.12-0.49,7.05-4.22,6.56-8.34c-0.49-4.11-4.22-7.04-8.34-6.55c-4.11,0.49-7.05,4.22-6.55,8.33
		c0.45,3.81,3.69,6.61,7.43,6.61C9.44,282.78,9.74,282.77,10.04,282.73z"/>
	<path d="M343.31,48.39c1.11,0.58,2.3,0.86,3.47,0.86c2.7,0,5.31-1.47,6.65-4.03c1.92-3.67,0.5-8.21-3.17-10.12
		c-3.67-1.92-8.2-0.5-10.12,3.17C338.22,41.94,339.64,46.47,343.31,48.39z"/>
	<path d="M21.42,301.03c-0.98-4.03-5.04-6.49-9.06-5.51c-4.03,0.99-6.49,5.05-5.51,9.07c0.84,3.43,3.91,5.72,7.28,5.72
		c0.59,0,1.19-0.07,1.79-0.22C19.94,309.11,22.41,305.05,21.42,301.03z"/>
	<path d="M29.44,326.9c-1.46-3.88-5.79-5.83-9.67-4.37c-3.87,1.47-5.82,5.79-4.36,9.67c1.14,3,3.99,4.85,7.02,4.85
		c0.88,0,1.78-0.16,2.65-0.49C28.95,335.1,30.91,330.77,29.44,326.9z"/>
	<path d="M239.5,184.01c-4.142,0-7.5,3.358-7.5,7.5s3.358,7.5,7.5,7.5c26.743,0,48.5,21.757,48.5,48.5c0,4.142,3.358,7.5,7.5,7.5
		s7.5-3.358,7.5-7.5C303,212.496,274.514,184.01,239.5,184.01z"/>
</g>
<g>
</g>
<g>
</g>
<g>
</g>
<g>
</g>
<g>
</g>
<g>
</g>
<g>
</g>
<g>
</g>
<g>
</g>
<g>
</g>
<g>
</g>
<g>
</g>
<g>
</g>
<g>
</g>
<g>
</g>
</svg>
