<svg width="44" height="23" viewBox="0 0 44 23" fill="none" xmlns="http://www.w3.org/2000/svg">
<path d="M1.96437 0.71017C1.25202 0.729848 0.690491 1.32328 0.71017 2.03563L1.03085 13.6441C1.05052 14.3565 1.64395 14.918 2.35631 14.8983C3.06866 14.8786 3.63019 14.2852 3.61051 13.5728L3.32546 3.2542L13.6441 2.96915C14.3565 2.94948 14.918 2.35605 14.8983 1.64369C14.8786 0.931339 14.2852 0.369815 13.5728 0.389493L1.96437 0.71017ZM22 20.9247L21.1131 21.862L22 22.7011L22.8869 21.862L22 20.9247ZM43.2898 2.03563C43.3095 1.32328 42.748 0.729848 42.0356 0.71017L30.4272 0.389493C29.7148 0.369815 29.1214 0.931339 29.1017 1.64369C29.082 2.35605 29.6435 2.94948 30.3559 2.96915L40.6745 3.2542L40.3895 13.5728C40.3698 14.2852 40.9313 14.8786 41.6437 14.8983C42.356 14.918 42.9495 14.3565 42.9692 13.6441L43.2898 2.03563ZM1.11315 2.93724L21.1131 21.862L22.8869 19.9875L2.88685 1.06276L1.11315 2.93724ZM22.8869 21.862L42.8869 2.93724L41.1131 1.06276L21.1131 19.9875L22.8869 21.862Z" fill="#F3DFD8"/>
</svg>
